HIERARCHY
ROOT Hips
{
	OFFSET -21.947001 39.810204 44.525997
	CHANNELS 6 Xposition Yposition Zposition Zrotation Xrotation Yrotation
	JOINT Chest
	{
		OFFSET -0.201599 0.334099 6.453201
		CHANNELS 6 Xposition Yposition Zposition Zrotation Xrotation Yrotation
		JOINT Chest2
		{
			OFFSET 0.000000 0.000000 3.568001
			CHANNELS 6 Xposition Yposition Zposition Zrotation Xrotation Yrotation
			JOINT Neck
			{
				OFFSET 0.000000 0.000000 8.296402
				CHANNELS 6 Xposition Yposition Zposition Zrotation Xrotation Yrotation
				JOINT Head
				{
					OFFSET 0.000000 0.000000 2.173901
					CHANNELS 6 Xposition Yposition Zposition Zrotation Xrotation Yrotation
					End Site
					{
						OFFSET 0.000000 0.000000 7.891998
					}
				}
			}
			JOINT LeftCollar
			{
				OFFSET 1.927601 0.221401 6.049000
				CHANNELS 6 Xposition Yposition Zposition Zrotation Xrotation Yrotation
				JOINT LeftShoulder
				{
					OFFSET 4.959700 0.000000 0.000000
					CHANNELS 6 Xposition Yposition Zposition Zrotation Xrotation Yrotation
					JOINT LeftElbow
					{
						OFFSET 0.000000 0.000000 -8.654202
						CHANNELS 6 Xposition Yposition Zposition Zrotation Xrotation Yrotation
						JOINT LeftWrist
						{
							OFFSET 0.000000 0.000000 -13.864101
							CHANNELS 6 Xposition Yposition Zposition Zrotation Xrotation Yrotation
							End Site
							{
								OFFSET 0.000000 0.000000 -2.173901
							}
						}
					}
				}
			}
			JOINT RightCollar
			{
				OFFSET -3.155701 -0.764999 6.687801
				CHANNELS 6 Xposition Yposition Zposition Zrotation Xrotation Yrotation
				JOINT RightShoulder
				{
					OFFSET -3.592899 0.000000 0.000000
					CHANNELS 6 Xposition Yposition Zposition Zrotation Xrotation Yrotation
					JOINT RightElbow
					{
						OFFSET 0.000000 0.000000 -10.352398
						CHANNELS 6 Xposition Yposition Zposition Zrotation Xrotation Yrotation
						JOINT RightWrist
						{
							OFFSET 0.000000 0.000000 -12.750301
							CHANNELS 6 Xposition Yposition Zposition Zrotation Xrotation Yrotation
							End Site
							{
								OFFSET 0.000000 0.000000 -2.173901
							}
						}
					}
				}
			}
		}
	}
	JOINT LeftHip
	{
		OFFSET 2.460600 -0.518101 -2.735500
		CHANNELS 6 Xposition Yposition Zposition Zrotation Xrotation Yrotation
		JOINT LeftKnee
		{
			OFFSET 0.000000 -0.000004 -17.005899
			CHANNELS 6 Xposition Yposition Zposition Zrotation Xrotation Yrotation
			JOINT LeftAnkle
			{
				OFFSET 0.000000 0.000000 -19.194401
				CHANNELS 6 Xposition Yposition Zposition Zrotation Xrotation Yrotation
				End Site
				{
					OFFSET 0.000000 -8.134600 0.000000
				}
			}
		}
	}
	JOINT RightHip
	{
		OFFSET -3.115499 -0.679600 -2.320301
		CHANNELS 6 Xposition Yposition Zposition Zrotation Xrotation Yrotation
		JOINT RightKnee
		{
			OFFSET 0.000000 -0.000004 -17.680401
			CHANNELS 6 Xposition Yposition Zposition Zrotation Xrotation Yrotation
			JOINT RightAnkle
			{
				OFFSET 0.000000 0.000000 -16.993797
				CHANNELS 6 Xposition Yposition Zposition Zrotation Xrotation Yrotation
				End Site
				{
					OFFSET 0.000000 -8.842300 0.000000
				}
			}
		}
	}
}
MOTION
Frames: 9
Frame Time: 0.041667
41.435204 -8.004997 44.010994 2776.219017 -14.730351 5.340348 -0.201594 0.334096 6.453198 -37.460261 12.786605 10.924461 0.000004 0.000006 3.567997 3.714679 -7.054313 -0.501655 0.000005 0.000000 8.296391 223.398890 -179.939107 162.778694 -0.000002 -0.000002 2.173895 3.017877 4.359760 6.622481 1.927605 0.221400 6.048989 -30.614711 10.007824 9.776707 4.959704 -0.000002 0.000004 177.789346 193.383788 71.652591 -0.000007 -0.000001 -8.654200 38.654831 -12.418513 6.394804 -0.000006 0.000005 -13.864100 3912.551360 -16.290213 30.520004 -3.155704 -0.765003 6.687797 27.761722 5.084972 -4.869174 -3.592896 0.000010 0.000005 -229.411929 176.567972 271.961330 -0.000004 0.000002 -10.352398 -368.577607 -8.019301 -354.649376 -0.000010 -0.000001 -12.750307 202.411372 169.290063 -206.775713 2.460602 -0.518101 -2.735510 -1117.658824 14.521281 0.667938 -0.000001 -0.000002 -17.005899 867.522598 171.023934 -166.582331 -0.000008 0.000002 -19.194401 229.163433 168.069522 232.135098 -3.115491 -0.679605 -2.320307 -447.673821 -49.084827 -90.589421 -0.000002 -0.000015 -17.680405 -783.642794 166.786745 -222.548013 0.000005 -0.000002 -16.993797 1381.968458 22.517168 -393.253797
41.445801 -7.992897 44.021992 2775.978813 -14.644795 5.240847 -0.201600 0.334099 6.453207 -37.255738 12.868402 10.755567 0.000002 -0.000001 3.567999 3.660339 -7.091128 -0.509962 0.000000 0.000011 8.296394 223.526492 -179.883277 162.981714 -0.000002 0.000003 2.173906 3.009849 4.248918 6.648150 1.927595 0.221407 6.048996 -30.649203 9.782246 10.208674 4.959701 -0.000001 -0.000003 177.993774 193.301170 71.382150 -0.000003 -0.000001 -8.654199 38.637520 -12.263948 6.328565 -0.000003 0.000005 -13.864100 3912.658457 -16.373572 30.311249 -3.155706 -0.764995 6.687797 27.955997 5.007489 -5.824802 -3.592900 0.000002 0.000008 -229.047552 177.453888 272.760872 -0.000003 0.000004 -10.352397 -368.787513 -7.774023 -354.810924 0.000005 0.000002 -12.750307 202.306105 169.248659 -206.903068 2.460600 -0.518100 -2.735499 -1117.822421 14.607608 0.763389 -0.000003 0.000001 -17.005903 867.303869 171.338615 -166.832794 -0.000007 0.000003 -19.194405 229.530310 168.126855 232.531031 -3.115497 -0.679589 -2.320298 -447.066125 -49.126453 -90.164945 -0.000004 -0.000013 -17.680401 -783.883107 166.634240 -222.550758 -0.000003 -0.000003 -16.993801 1382.261336 22.488149 -392.915511
41.458702 -7.973396 44.040791 2776.026460 -14.508493 5.194749 -0.201599 0.334103 6.453205 -37.209050 12.925757 10.626212 0.000004 -0.000002 3.568006 3.596828 -7.126843 -0.517850 0.000003 0.000007 8.296394 223.528992 -179.796943 163.151950 -0.000004 0.000005 2.173895 2.805533 4.338718 6.637573 1.927602 0.221401 6.048994 -30.953908 9.568463 10.767005 4.959703 0.000001 0.000006 178.279590 192.908257 70.963241 0.000000 0.000004 -8.654202 38.625761 -11.996531 6.106343 -0.000002 0.000008 -13.864096 3912.743261 -16.388921 30.245970 -3.155706 -0.764997 6.687796 28.054394 4.908441 -5.686522 -3.592896 -0.000005 -0.000002 -228.708707 177.465349 272.789313 -0.000009 0.000001 -10.352400 -368.699267 -7.683005 -354.806389 -0.000003 -0.000001 -12.750299 202.108330 169.115170 -206.806954 2.460599 -0.518095 -2.735502 -1117.501129 14.391302 0.731149 -0.000001 -0.000005 -17.005894 867.100985 171.108902 -166.943224 -0.000003 0.000001 -19.194403 229.326279 168.279359 232.291947 -3.115495 -0.679596 -2.320297 -446.739888 -49.069455 -89.800206 -0.000005 -0.000005 -17.680401 -783.493622 166.728825 -222.617503 0.000000 -0.000001 -16.993799 1382.062441 22.438609 -392.955372
41.468002 -7.949696 44.055992 2776.315623 -14.334790 5.192271 -0.201596 0.334103 6.453196 -37.399350 12.954165 10.526501 0.000002 0.000008 3.568001 3.585731 -7.156359 -0.520107 0.000002 0.000000 8.296398 223.399013 -179.677511 163.374300 -0.000005 -0.000005 2.173902 2.870999 4.394128 6.559577 1.927597 0.221408 6.048998 -31.246288 9.376959 11.136954 4.959699 -0.000001 0.000006 178.550748 192.312555 70.655834 0.000002 0.000003 -8.654197 38.753937 -11.625493 5.907853 0.000000 0.000004 -13.864100 3912.866532 -16.354155 30.202878 -3.155709 -0.764996 6.687800 28.320018 4.764170 -6.625227 -3.592899 -0.000000 0.000012 -228.782896 178.243335 273.563502 -0.000014 0.000001 -10.352407 -368.546926 -7.796885 -354.757894 -0.000002 0.000004 -12.750307 202.098522 169.202746 -206.652168 2.460602 -0.518096 -2.735512 -1117.031758 13.977379 0.595867 -0.000005 0.000000 -17.005901 867.029076 170.556572 -166.882859 -0.000007 -0.000000 -19.194403 228.707641 168.297787 231.521064 -3.115495 -0.679595 -2.320302 -446.915697 -48.964199 -89.740688 -0.000008 -0.000006 -17.680397 -783.216863 166.607384 -222.973971 -0.000004 -0.000003 -16.993790 1382.075774 22.417009 -392.833713
41.477699 -7.925091 44.073196 2776.610468 -14.161543 5.153635 -0.201598 0.334101 6.453200 -37.828641 12.974229 10.421896 0.000001 0.000002 3.567999 3.712831 -7.105360 -0.516192 0.000007 0.000000 8.296402 223.373414 -179.549199 163.762200 -0.000002 0.000003 2.173900 2.843596 4.377633 6.464524 1.927602 0.221400 6.048998 -31.081783 9.089307 11.185162 4.959703 -0.000001 -0.000001 178.509726 191.894697 70.552282 -0.000000 -0.000005 -8.654200 38.663109 -11.361820 5.862386 -0.000014 0.000009 -13.864100 3913.114823 -16.229364 30.129686 -3.155704 -0.765004 6.687801 28.436664 4.576570 -6.613718 -3.592897 -0.000007 0.000012 -228.654106 178.416644 273.895039 -0.000006 -0.000002 -10.352400 -368.200199 -7.907908 -354.701696 -0.000002 -0.000001 -12.750305 202.305299 169.445560 -206.549907 2.460600 -0.518094 -2.735498 -1116.519767 13.524606 0.436823 -0.000001 0.000002 -17.005898 866.338517 170.099769 -166.717363 -0.000007 0.000005 -19.194401 228.460662 168.371212 231.071037 -3.115495 -0.679597 -2.320304 -447.102380 -48.924413 -89.688744 -0.000003 -0.000011 -17.680397 -782.582366 166.725164 -223.425310 -0.000003 -0.000005 -16.993797 1381.824204 22.229891 -392.966219
41.486702 -7.893791 44.089596 2776.940503 -14.032449 5.233170 -0.201599 0.334102 6.453198 -38.036405 13.199731 10.148586 -0.000001 -0.000001 3.567997 3.841833 -7.156564 -0.497985 0.000005 0.000000 8.296401 223.041330 -179.516646 164.229385 -0.000006 0.000006 2.173903 3.034969 4.287914 6.318833 1.927601 0.221404 6.048995 -31.431527 8.762793 11.643360 4.959700 0.000005 -0.000002 178.679265 191.512986 70.186921 -0.000006 0.000004 -8.654202 38.585030 -11.212788 5.788269 0.000003 0.000000 -13.864096 3913.553267 -15.903214 30.308999 -3.155704 -0.765004 6.687800 28.281571 4.470333 -6.410515 -3.592895 -0.000001 0.000010 -228.415255 178.482118 274.132019 -0.000013 0.000001 -10.352399 -367.838963 -7.936769 -354.677927 0.000000 -0.000000 -12.750303 202.710111 169.495365 -206.501699 2.460602 -0.518095 -2.735504 -1116.087990 13.238996 0.249299 -0.000003 0.000000 -17.005898 865.768497 169.715297 -166.627997 0.000001 -0.000001 -19.194401 228.199106 168.298457 230.651172 -3.115493 -0.679599 -2.320299 -447.264337 -48.861124 -89.588525 -0.000007 -0.000010 -17.680401 -782.311344 166.641275 -223.810682 0.000007 0.000000 -16.993797 1381.710987 22.282447 -392.431060
41.495201 -7.857594 44.102692 2777.213929 -13.884647 5.316232 -0.201599 0.334098 6.453198 -38.186324 13.378458 9.870621 0.000003 0.000006 3.567990 4.094765 -7.210717 -0.271357 -0.000001 0.000009 8.296387 222.702949 -179.354948 164.398869 0.000000 -0.000001 2.173908 3.097510 4.311339 6.265653 1.927598 0.221401 6.048985 -31.598904 8.623662 11.704170 4.959701 -0.000001 0.000001 178.583410 191.188852 70.009979 -0.000005 -0.000001 -8.654200 38.627230 -11.153037 5.740450 -0.000007 0.000005 -13.864103 3913.972039 -15.962150 30.427260 -3.155707 -0.765004 6.687794 27.972239 4.301411 -6.052890 -3.592898 0.000001 0.000008 -228.216209 178.275341 274.085547 -0.000006 -0.000003 -10.352389 -367.797682 -8.017514 -354.704783 0.000003 -0.000001 -12.750307 203.157324 169.486609 -206.357541 2.460598 -0.518096 -2.735505 -1115.797407 13.001165 0.040923 -0.000000 0.000001 -17.005903 864.871447 169.500666 -166.508237 0.000001 0.000000 -19.194401 228.457752 168.188313 230.798895 -3.115494 -0.679595 -2.320305 -447.429983 -48.772479 -89.600710 -0.000003 -0.000004 -17.680405 -781.744111 166.751501 -224.223117 0.000004 -0.000002 -16.993795 1381.414284 22.137808 -392.527638
41.500801 -7.813789 44.117092 2777.385067 -13.758079 5.447136 -0.201598 0.334101 6.453208 -38.145630 13.596146 9.604101 0.000006 0.000003 3.567992 4.105205 -7.216692 -0.278468 -0.000002 0.000007 8.296398 222.551114 -179.247195 164.581891 0.000000 0.000003 2.173896 3.293098 4.198014 6.328677 1.927596 0.221409 6.048998 -31.520329 8.409410 11.789592 4.959696 -0.000002 0.000005 178.359339 190.900031 69.843513 -0.000004 0.000000 -8.654199 38.722767 -11.125422 5.763536 -0.000001 0.000000 -13.864100 3914.296828 -15.929029 30.532759 -3.155710 -0.764992 6.687799 28.315396 4.103422 -6.194658 -3.592901 0.000008 0.000007 -228.696317 175.415049 274.479157 -0.000008 0.000003 -10.352398 -370.697234 -7.939092 -354.659512 -0.000001 0.000000 -12.750307 203.368855 169.557575 -206.548308 2.460605 -0.518098 -2.735494 -1115.337762 12.888105 -0.246091 -0.000002 0.000003 -17.005896 863.006969 169.517072 -166.387506 -0.000004 0.000002 -19.194403 229.465533 168.237463 232.537178 -3.115491 -0.679600 -2.320297 -447.500389 -48.669674 -89.686770 -0.000008 -0.000004 -17.680397 -781.482869 166.593983 -224.575363 0.000002 0.000000 -16.993793 1381.495481 22.058183 -392.489717
41.511505 -7.768791 44.132694 2777.478394 -13.609710 5.560332 -0.201598 0.334109 6.453205 -37.934908 13.767383 9.348771 -0.000002 0.000002 3.567998 4.077605 -7.230234 -0.286613 0.000010 0.000004 8.296391 222.317712 -179.169918 164.635740 -0.000001 -0.000001 2.173903 3.249254 4.096242 6.463405 1.927605 0.221405 6.048995 -31.691330 8.225836 12.076028 4.959705 0.000000 0.000005 178.238199 190.793357 69.487770 0.000003 -0.000003 -8.654200 38.681943 -11.180913 5.809412 -0.000001 0.000004 -13.864100 3914.274535 -15.872509 30.378994 -3.155703 -0.764999 6.687791 28.329902 3.959658 -6.200647 -3.592898 0.000007 0.000014 -228.739962 175.475319 274.699389 -0.000004 0.000000 -10.352400 -370.606829 -7.896642 -354.646289 0.000009 0.000003 -12.750302 203.610712 169.646422 -206.680759 2.460602 -0.518095 -2.735502 -1114.768726 12.617601 -0.567617 -0.000000 -0.000001 -17.005899 861.044137 169.427091 -166.144215 0.000000 0.000007 -19.194401 230.555713 168.238488 234.463838 -3.115496 -0.679590 -2.320297 -447.472740 -48.648757 -89.778377 -0.000008 0.000004 -17.680401 -780.925581 166.712582 -224.760557 0.000004 -0.000001 -16.993793 1381.300957 21.918898 -392.924254
